<?xml version="1.0" encoding="UTF-8"?><svg id="b" xmlns="http://www.w3.org/2000/svg" viewBox="0 0 48 44"><defs><style>.d{fill:#009edb;}</style></defs><g id="c"><path class="d" d="M17.5,19h23c3.58984375,0,6.5-2.91015625,6.5-6.5s-2.91015625-6.5-6.5-6.5c-.590087890625,0-1.158935546875.085693359375-1.702392578125.23291015625-.80517578125-3.56689453125-3.9873046875-6.23291015625-7.797607421875-6.23291015625-4.177490234375,0-7.6025390625,3.2032470703125-7.9638671875,7.2867431640625-.4814453125-.1756591796875-.994140625-.2867431640625-1.5361328125-.2867431640625-2.4853515625,0-4.5,2.0146484375-4.5,4.5,0,.1866455078125.03271484375.3642578125.054931640625.544921875-1.720458984375.220703125-3.054931640625,1.674560546875-3.054931640625,3.455078125,0,1.9329833984375,1.56689453125,3.5,3.5,3.5Z"/><path class="d" d="M47,38h-16c0,.5498046875-.219970703125,1.0498046875-.590087890625,1.41015625-.35986328125.36962890625-.85986328125.58984375-1.409912109375.58984375h-10c-1.0999755859375,0-2-.89990234375-2-2H1c-.550048828125,0-1,.4501953125-1,1v4c0,.5498046875.449951171875,1,1,1h46c.550048828125,0,1-.4501953125,1-1v-4c0-.5498046875-.449951171875-1-1-1Z"/><path class="d" d="M8,16h3v-5h-6c-1.0999755859375,0-2,.89990234375-2,2v22h5v-19Z"/><rect class="d" x="40" y="22" width="5" height="13"/></g></svg>