<?xml version="1.0" encoding="UTF-8"?>
<svg id="Layer_1" xmlns="http://www.w3.org/2000/svg" version="1.1" viewBox="0 0 30 43">
  <!-- Generator: Adobe Illustrator 29.2.1, SVG Export Plug-In . SVG Version: 2.1.0 Build 116)  -->
  <defs>
    <style>
      .st0 {
        fill: #009edb;
      }
    </style>
  </defs>
  <g id="Layer_2">
    <g id="Icons">
      <path class="st0" d="M30,1.6c0,0,0-.1,0-.2,0,0,0-.1,0-.2,0,0,0-.1-.1-.2,0,0,0-.1,0-.1-.1-.2-.3-.4-.6-.6,0,0,0,0-.1,0,0,0-.1,0-.2-.1,0,0-.1,0-.2,0,0,0-.1,0-.2,0-.1,0-.3,0-.4,0h-7c-1.1,0-2,.9-2,2s.9,2,2,2h2.2l-4.2,4.2c-5.4-3.8-12.9-2.6-16.7,2.8C.8,13.1,0,15.5,0,18c0,5.9,4.2,10.9,10,12v4h-3c-1.1,0-2,.9-2,2s.9,2,2,2h3v3c0,1.1.9,2,2,2s2-.9,2-2v-3h3c1.1,0,2-.9,2-2s-.9-2-2-2h-3v-4c5.8-1.1,10-6.1,10-12,0-2.5-.8-4.9-2.2-6.9l4.2-4.2v2.2c0,1.1.9,2,2,2s2-.9,2-2V2c0-.1,0-.3,0-.4ZM12,26c-4.4,0-8-3.6-8-8s3.6-8,8-8,8,3.6,8,8c0,4.4-3.6,8-8,8Z"/>
    </g>
  </g>
</svg>