<?xml version="1.0" encoding="UTF-8"?><svg id="b" xmlns="http://www.w3.org/2000/svg" viewBox="0 0 44 48.000021853117687"><defs><style>.d{fill:#009edb;}</style></defs><g id="c"><path class="d" d="M16,26.000021853117687c1.1300048828125,0,2.16998291015625.3699951171875,3,1v-7c0-1.10003662109375-.9000244140625-2-2-2H4c-1.0999755859375,0-2,.89996337890625-2,2v7c.83001708984375-.6300048828125,1.8699951171875-1,3-1h11Z"/><path class="d" d="M20,36.000021853117687h-1v-5c0-1.6600341796875-1.34002685546875-3-3-3H5c-1.65997314453125,0-3,1.3399658203125-3,3v5h-1c-.54998779296875,0-1,.45001220703125-1,1v7c0,.54998779296875.45001220703125,1,1,1h1v2c0,.55224609375.44769287109375,1,1,1h2c.55230712890625,0,1-.44775390625,1-1v-2h9v2c0,.55224609375.44769287109375,1,1,1h2c.55230712890625,0,1-.44775390625,1-1v-2h1c.54998779296875,0,1-.45001220703125,1-1v-7c0-.54998779296875-.45001220703125-1-1-1ZM6,41.000021853117687h-2c-.54998779296875,0-1-.45001220703125-1-1s.45001220703125-1,1-1h2c.54998779296875,0,1,.45001220703125,1,1s-.45001220703125,1-1,1ZM14,40.000021853117687c0-.54998779296875.45001220703125-1,1-1h2c.54998779296875,0,1,.45001220703125,1,1s-.45001220703125,1-1,1h-2c-.54998779296875,0-1-.45001220703125-1-1ZM5,32.000021853117687c0-.54998779296875.45001220703125-1,1-1h9c.54998779296875,0,1,.45001220703125,1,1v4H5v-4Z"/><path class="d" d="M42.433349609375.828635134367687c-.37060546875-.740234375-1.2724609375-1.03955078125-2.0126953125-.6708984375-.74072265625.37060546875-1.041015625,1.27197265625-.6708984375,2.0126953125,1.6689453125,3.3369140625,1.6689453125,7.3212890625,0,10.658203125-.3701171875.74072265625-.06982421875,1.64208984375.6708984375,2.0126953125.21533203125.107421875.4443359375.15869140625.669921875.15869140625.5498046875,0,1.07958984375-.30419921875,1.3427734375-.82958984375,2.0888671875-4.17724609375,2.0888671875-9.16455078125,0-13.341796875Z"/><path class="d" d="M37.82403564453125,2.795493044523937c-.388671875-.73193359375-1.2978515625-1.0087890625-2.02880859375-.61865234375-.7314453125.38916015625-1.00830078125,1.2978515625-.61865234375,2.02880859375l.10400390625.1953125c.95166015625,1.7841796875.95166015625,3.9150390625-.00048828125,5.7001953125l-.103515625.1943359375c-.3896484375.73095703125-.11279296875,1.6396484375.61865234375,2.02880859375.224609375.11962890625.4658203125.1767578125.70361328125.1767578125.53662109375,0,1.0556640625-.28857421875,1.3251953125-.79541015625l.10302734375-.193359375c1.423828125-2.66845703125,1.423828125-5.85498046875.00048828125-8.5224609375l-.103515625-.1943359375Z"/><path class="d" d="M21.579345703125.157736696867687c-.740234375-.36865234375-1.64208984375-.0693359375-2.0126953125.6708984375-2.0888671875,4.17724609375-2.0888671875,9.16455078125,0,13.341796875.26318359375.525390625.79296875.82958984375,1.3427734375.82958984375.2255859375,0,.45458984375-.05126953125.669921875-.15869140625.74072265625-.37060546875,1.041015625-1.27197265625.6708984375-2.0126953125-1.6689453125-3.3369140625-1.6689453125-7.3212890625,0-10.658203125.3701171875-.74072265625.06982421875-1.64208984375-.6708984375-2.0126953125Z"/><path class="d" d="M26.82342529296875,10.295493044523937l-.103515625-.1943359375c-.9521484375-1.78515625-.9521484375-3.916015625-.00048828125-5.7001953125l.10400390625-.1953125c.3896484375-.73095703125.11279296875-1.6396484375-.61865234375-2.02880859375-.73095703125-.39013671875-1.64013671875-.11328125-2.02880859375.61865234375l-.103515625.1943359375c-1.42333984375,2.66748046875-1.42333984375,5.85400390625.00048828125,8.5224609375l.10302734375.193359375c.26953125.5068359375.78857421875.79541015625,1.3251953125.79541015625.23779296875,0,.47900390625-.05712890625.70361328125-.1767578125.7314453125-.38916015625,1.00830078125-1.2978515625.61865234375-2.02880859375Z"/><path class="d" d="M35,25.000021853117687h-2v-15.778564453125c.60955810546875-.54913330078125,1-1.33642578125,1-2.221435546875,0-1.6568603515625-1.3431396484375-3-3-3s-3,1.3431396484375-3,3c0,.885009765625.39044189453125,1.67230224609375,1,2.221435546875v15.778564453125h-2c-.55230712890625,0-1,.44769287109375-1,1v2h10v-2c0-.55230712890625-.44769287109375-1-1-1Z"/></g></svg>