<?xml version="1.0" encoding="UTF-8"?><svg id="b" xmlns="http://www.w3.org/2000/svg" viewBox="0 0 36 47.997482299804688"><defs><style>.d{fill:#009edb;}</style></defs><g id="c"><path class="d" d="M18,0C8.1298828125,0,0,8.01995849609375,0,17.91998291015625c0,9.760009765625,10.7099609375,22.9000244140625,17.699951171880457,29.95001220703125.170166015619543.16998291015625.429931640619543.16998291015625.60009765625,0,6.989990234369543-7.04998779296875,17.699951171869543-20.19000244140625,17.699951171869543-29.95001220703125C36,8.01995849609375,27.8701171875,0,18,0ZM18,30c-6.6298828125,0-12-5.369995117185681-12-12,0-6.640014648435681,5.3701171875-12,12-12s12,5.359985351564319,12,12c0,6.630004882814319-5.3701171875,12-12,12Z"/><path class="d" d="M22.530029296880457,13.510009765625c-.320068359380457-.33001708984375-.75-.5-1.179931640630457-.5-.41015625,0-.830078125.15997314453125-1.150146484369543.469970703125l-2.199951171880457,2.58001708984375-2.199951171869543-2.58001708984375c-.320068359380457-.30999755859375-.739990234380457-.469970703125-1.150146484380457-.469970703125-.429931640619543,0-.85986328125.16998291015625-1.179931640619543.5-.639892578130457.64996337890625-.6298828125,1.69000244140625.030029296869543,2.329956054689319l2.10009765625,2.164855957029431-2.10009765625,2.16485595703125c-.659912109369543.63995361328125-.669921875,1.67999267578125-.030029296869543,2.329956054689319.320068359369543.330017089841931.75.5,1.179931640619543.5.41015625,0,.830078125-.159973144533069,1.150146484380457-.469970703125l2.199951171869543-2.580017089845569,2.199951171880457,2.580017089845569c.320068359369543.309997558591931.739990234369543.469970703125,1.150146484369543.469970703125.429931640630457,0,.85986328125-.169982910158069,1.179931640630457-.5.639892578119543-.649963378908069.6298828125-1.690002441408069-.030029296880457-2.329956054689319l-2.10009765625-2.16485595703125,2.10009765625-2.164855957029431c.659912109380457-.639953613283069.669921875-1.679992675783069.030029296880457-2.329956054689319Z"/></g></svg>