<?xml version="1.0" encoding="UTF-8"?>
<svg id="Layer_1" xmlns="http://www.w3.org/2000/svg" version="1.1" viewBox="0 0 48 40">
  <!-- Generator: Adobe Illustrator 29.2.1, SVG Export Plug-In . SVG Version: 2.1.0 Build 116)  -->
  <defs>
    <style>
      .st0 {
        fill: #009edb;
      }
    </style>
  </defs>
  <g id="Layer_2">
    <g id="Icons">
      <path class="st0" d="M46.5,37H1.5c-.8,0-1.5.7-1.5,1.5s.7,1.5,1.5,1.5h45c.8,0,1.5-.7,1.5-1.5s-.7-1.5-1.5-1.5Z"/>
      <path class="st0" d="M1.5,3h45c.8,0,1.5-.7,1.5-1.5s-.7-1.5-1.5-1.5H1.5C.7,0,0,.7,0,1.5s.7,1.5,1.5,1.5Z"/>
      <path class="st0" d="M5,26.6v3.4h8v-1c0-3.3,1.5-6.4,4.1-8.5-1.3-1-2.9-1.5-4.5-1.5-4.2,0-7.6,3.4-7.6,7.6Z"/>
      <path class="st0" d="M43,30v-3.4c0-4.2-3.4-7.5-7.6-7.6-1.6,0-3.2.5-4.5,1.5,2.6,2.1,4.1,5.2,4.1,8.5v1h8Z"/>
      <path class="st0" d="M33,30v-1c0-5-4.1-9-9.1-8.9-4.9,0-8.9,4-8.9,8.9v4h18v-3Z"/>
      <circle class="st0" cx="24" cy="13" r="5"/>
      <circle class="st0" cx="13" cy="13" r="4"/>
      <circle class="st0" cx="35" cy="13" r="4"/>
    </g>
  </g>
</svg>