<svg xmlns="http://www.w3.org/2000/svg" viewBox="0 0 47.99854 48.00155"><defs><style>.cls-1{fill:#009edb;}</style></defs><g id="Layer_2" data-name="Layer 2"><g id="Icons"><path class="cls-1" d="M38,31.02792a9.91643,9.91643,0,0,0-8.65186,4.59363,6.768,6.768,0,0,0-10.69689.00146A9.91637,9.91637,0,0,0,9.998,31.02792c-5.69971,0-9.998,4.064-9.998,9.45264a1.5,1.5,0,0,0,3,0,6.42334,6.42334,0,0,1,2.99988-5.48145v9.00244a4,4,0,0,0,8,0v-9a6.423,6.423,0,0,1,2.9967,5.479,1.5,1.5,0,0,0,3,0l-.00128-.02613.00128-.01294a6.34217,6.34217,0,0,1,1.00464-3.43872V41.0029a2.99866,2.99866,0,0,0,5.99732,0V37.00155a6.3418,6.3418,0,0,1,1.00537,3.43994c-.00006.01319-.002.02588-.002.03907a1.5,1.5,0,0,0,3,0c0-2.52613,1.8172-4.41138,3.998-5.479l-1.93286,7a5.02331,5.02331,0,1,0,9.85077-.02057L41,35.00155c2.181,1.06763,3.99854,2.95288,3.99854,5.479a1.5,1.5,0,0,0,3,0C47.99854,35.09188,43.7002,31.02792,38,31.02792Z"/><circle class="cls-1" cx="38.00018" cy="26.00155" r="3"/><circle class="cls-1" cx="9.99921" cy="26.00155" r="3"/><path class="cls-1" d="M21.494,28.49643a2.50519,2.50519,0,1,0,2.50519-2.50525A2.50513,2.50513,0,0,0,21.494,28.49643Z"/><path class="cls-1" d="M12.02387,15.04928a.90733.90733,0,0,0-.01844.13611,1.36886,1.36886,0,0,0,.00638.27874.58986.58986,0,0,0,.06271.17789.64108.64108,0,0,0,.288.2649.63119.63119,0,0,0,.17908.06475A1.107,1.107,0,0,0,12.74938,16a.58439.58439,0,0,0,.23278-.06586,1.85767,1.85767,0,0,0,.27526-.20423C13.368,15.64958,15,14.00155,15,14.00155H25l-1.96124,8.4906-.00141.00586-.00091.00385c-.00244.01062-.00183.02124-.004.03192a1.25331,1.25331,0,0,0-.02838.21985c-.00012.00647.00128.01281.0011.01928a1.255,1.255,0,0,0,.01617.22742l.00635.02423a1.27236,1.27236,0,0,0,.05749.21106c.00342.0091.00879.01709.01233.02606a1.26649,1.26649,0,0,0,.09424.19086c.00739.01221.0174.02252.02515.03442a1.25353,1.25353,0,0,0,.11963.1576c.0213.02344.047.04236.07.06408a1.2709,1.2709,0,0,0,.10913.09766,1.04654,1.04654,0,0,0,.157.09839c.01355.0069.01208.01129.02655.017.02734.01086.05047.02087.05108.02118a.686.686,0,0,0,.11268.0368.46006.46006,0,0,0,.08813.01325.42761.42761,0,0,0,.08179.00628c.054.00275.0708-.00061.124.0011.04327.00153.11438-.0025.1571-.00543.03888-.00263.08808-.00977.12647-.01593a1.01261,1.01261,0,0,0,.12439-.0268c.03363-.00921.07465-.02563.10736-.03765a1.06926,1.06926,0,0,0,.11084-.04511c.03424-.01684.0697-.0307.10236-.0506a1.17318,1.17318,0,0,0,.09961-.06329c.03222-.02417.06524-.05493.09515-.0824a1.10935,1.10935,0,0,0,.10126-.09631c.02124-.02454.043-.05817.06262-.08454A1.24512,1.24512,0,0,0,25.35919,23.3c.004-.00787.00958-.01422.01325-.02209l.001-.002.00428-.00892L30,14.00155h5a2.07829,2.07829,0,0,0,2-1.99872,2.03422,2.03422,0,0,0-1.94757-2.00128H30L25.36615.72866,25.363.72238,25.36151.719c-.00629-.01325-.01556-.02405-.02222-.037A1.26094,1.26094,0,0,0,25.2334.5054C25.21106.47519,25.184.45022,25.15955.42245a1.24015,1.24015,0,0,0-.09009-.0982A1.25433,1.25433,0,0,0,24.9668.24606C24.936.22342,24.90729.19827,24.87457.17837,24.8399.15725,24.80231.14218,24.76575.1246c-.03669-.01788-.07215-.038-.11072-.05231-.03516-.01294-.07214-.01971-.1084-.0296a1.21606,1.21606,0,0,0-.12689-.03235c-.041-.00665-.083-.00616-.12457-.00879a.31928.31928,0,0,0-.06244,0,1.3513,1.3513,0,0,0-.17847.00623c-.02545.00445-.0506.004-.076.01L23.97467.019c-.01154.00281-.02264.00818-.03424.01129a1.27558,1.27558,0,0,0-.19379.06842l-.017.006c-.00879.00415-.015.01142-.02375.01575a1.24722,1.24722,0,0,0-.26843.17773l-.01807.01392a1.26489,1.26489,0,0,0-.20056.23944c-.01141.01727-.02331.03375-.03381.05151a1.29439,1.29439,0,0,0-.12378.27845c-.00555.01806-.00922.036-.01386.05414A1.24511,1.24511,0,0,0,23.003,1.249l.00018.0011-.00018.00079a1.26,1.26,0,0,0,.03223.27966l.0011.009L25,10.00155H15s-1.79437-1.805-1.88477-1.88019A.68262.68262,0,0,0,12.7,8.00491a.34913.34913,0,0,0-.11358.01263c-.03162.00635-.057.01264-.08222.019a.96736.96736,0,0,0-.28528.15759c-.03161.03161-.06323.06323-.09485.101a.00632.00632,0,0,1-.00628.00653.705.705,0,0,0-.082.17053.66638.66638,0,0,0-.03162.19562.56478.56478,0,0,0,.00427.10346c.00629.02526.01264.05688.019.08221l.01264.0379L13,12.00283l-.96069,2.98389Z"/></g></g></svg>