<?xml version="1.0" encoding="UTF-8"?><svg id="b" xmlns="http://www.w3.org/2000/svg" viewBox="0 0 48.000694020007359 48.000244140625"><defs><style>.d{fill:#009edb;}</style></defs><g id="c"><path class="d" d="M45.000347010003679,34.479248046875c0,.82861328125.67138671875,1.5,1.5,1.5s1.5-.67138671875,1.5-1.5c0-5.388671875-4.29833984375-9.45263671875-9.99853515625-9.45263671875-3.791015625,0-6.953125,1.803955078125-8.65185546875,4.5936279296875-1.28564453125-1.625-3.2044677734375-2.6610107421875-5.34765625-2.6610107421875-2.143798828125,0-4.0634765625,1.03662109375-5.3492431640625,2.6624755859375-1.698486328125-2.7906494140625-4.8612060546875-4.5950927734375-8.6531982421875-4.5950927734375C4.300151697503679,25.026611328125.001811853753679,29.090576171875.001811853753679,34.479248046875c0,.82861328125.67138671875,1.5,1.5,1.5s1.5-.67138671875,1.5-1.5c0-2.2861328125,1.16290283203125-4.221435546875,2.9998779296875-5.360107421875v8.881103515625c0,2.209228515625,1.79083251953125,4,4,4,2.2091064453125,0,4-1.790771484375,4-4v-8.878662109375c1.8350830078125,1.138916015625,2.9967041015625,3.0731201171875,2.9967041015625,5.357666015625,0,.82861328125.67138671875,1.5,1.5,1.5s1.5-.67138671875,1.5-1.5c0-.0087890625-.001220703125-.017333984375-.001220703125-.026123046875,0-.00439453125.001220703125-.008544921875.001220703125-.012939453125,0-1.12841796875.38720703125-2.1485595703125,1.004638671875-2.937255859375v3.4986572265625c0,1.6561279296875,1.342529296875,2.9986572265625,2.9986572265625,2.9986572265625s2.9986572265625-1.342529296875,2.9986572265625-2.9986572265625v-3.4998779296875c.617919921875.788818359375,1.00537109375,1.8095703125,1.00537109375,2.9384765625,0,.01318359375-.001953125.02587890625-.001953125.0390625,0,.82861328125.67138671875,1.5,1.5,1.5s1.5-.67138671875,1.5-1.5c0-2.526123046875,1.4188232421875-4.6253662109375,3.599609375-5.6929931640625l-1.60302734375,7.2139892578125c-.516357421875,3.09814453125,1.86083984375,6,5.001708984375,6s5.5299072265625-2.90185546875,5.0135498046875-6l-1.6153564453125-7.2139892578125c2.180908203125,1.067626953125,3.60009765625,3.1668701171875,3.60009765625,5.6929931640625Z"/><circle class="d" cx="38.002055994378679" cy="20.000244140625" r="3"/><circle class="d" cx="10.001018396722429" cy="20.000244140625" r="3"/><path class="d" d="M26.506206385003679,22.4951171875c0-1.383544921875-1.12158203125-2.5052490234375-2.505126953125-2.5052490234375-1.3836669921875,0-2.5052490234375,1.1217041015625-2.5052490234375,2.5052490234375s1.12158203125,2.505126953125,2.5052490234375,2.505126953125c1.383544921875,0,2.505126953125-1.12158203125,2.505126953125-2.505126953125Z"/><path class="d" d="M3.074565760003679,17.687744140625L24.000347010003679,4.370849609375l20.92578125,13.31689453125c.3330078125.2119140625.705078125.31298828125,1.072265625.31298828125.6611328125-.00048828125,1.30859375-.32763671875,1.689453125-.9267578125.5927734375-.931640625.318359375-2.16796875-.61328125-2.76123046875L25.074565760003679.312744140625c-.65625-.4169921875-1.4921875-.4169921875-2.1484375,0L.926128260003679,14.312744140625c-.931640625.59326171875-1.2060546875,1.82958984375-.61328125,2.76123046875.59375.931640625,1.828125,1.205078125,2.76171875.61376953125Z"/><path class="d" d="M47.000347010003679,44.000244140625H1.000347010003679C.448039881097429,44.000244140625.000347010003679,44.44793701171875.000347010003679,45.000244140625v3h48v-3c0-.55230712890625-.44775390625-1-1-1Z"/></g></svg>